<?xml version="1.0" encoding="UTF-8" standalone="no"?>
<!-- Created with Inkscape (http://www.inkscape.org/) -->

<svg
   xmlns:dc="http://purl.org/dc/elements/1.1/"
   xmlns:cc="http://creativecommons.org/ns#"
   xmlns:rdf="http://www.w3.org/1999/02/22-rdf-syntax-ns#"
   xmlns:svg="http://www.w3.org/2000/svg"
   xmlns="http://www.w3.org/2000/svg"
   xmlns:xlink="http://www.w3.org/1999/xlink"
   version="1.1"
   width="800"
   height="250"
   id="svg2">
  <defs
     id="defs4">
    <linearGradient
       id="linearGradient4340">
      <stop
         id="stop4342"
         style="stop-color:#fea317;stop-opacity:1"
         offset="0" />
      <stop
         id="stop4344"
         style="stop-color:#ffc875;stop-opacity:1"
         offset="1" />
    </linearGradient>
    <linearGradient
       id="linearGradient4332">
      <stop
         id="stop4334"
         style="stop-color:#a0d217;stop-opacity:1"
         offset="0" />
      <stop
         id="stop4336"
         style="stop-color:#c7e575;stop-opacity:1"
         offset="1" />
    </linearGradient>
    <linearGradient
       id="linearGradient4324">
      <stop
         id="stop4326"
         style="stop-color:#ff31ff;stop-opacity:1"
         offset="0" />
      <stop
         id="stop4328"
         style="stop-color:#ff83ff;stop-opacity:1"
         offset="1" />
    </linearGradient>
    <linearGradient
       id="linearGradient4316">
      <stop
         id="stop4318"
         style="stop-color:#3f95fc;stop-opacity:1"
         offset="0" />
      <stop
         id="stop4320"
         style="stop-color:#8cbfff;stop-opacity:1"
         offset="1" />
    </linearGradient>
    <linearGradient
       x1="10.25"
       y1="83.8"
       x2="10.25"
       y2="166.8"
       id="linearGradient4514"
       xlink:href="#linearGradient4316"
       gradientUnits="userSpaceOnUse" />
    <linearGradient
       x1="65.57"
       y1="83.8"
       x2="65.57"
       y2="166.8"
       id="linearGradient4516"
       xlink:href="#linearGradient4324"
       gradientUnits="userSpaceOnUse" />
    <linearGradient
       x1="123.9"
       y1="84.3"
       x2="123.9"
       y2="166.8"
       id="linearGradient4518"
       xlink:href="#linearGradient4332"
       gradientUnits="userSpaceOnUse" />
    <linearGradient
       x1="180.2"
       y1="83.3"
       x2="180.2"
       y2="166.9"
       id="linearGradient4520"
       xlink:href="#linearGradient4340"
       gradientUnits="userSpaceOnUse" />
  </defs>
  <metadata
     id="metadata7">
    <rdf:RDF>
      <cc:Work
         rdf:about="">
        <dc:format>image/svg+xml</dc:format>
        <dc:type
           rdf:resource="http://purl.org/dc/dcmitype/StillImage" />
        <dc:title></dc:title>
      </cc:Work>
    </rdf:RDF>
  </metadata>
  <g
     transform="translate(0,-802)"
     id="layer1">
    <path
       d="m 18.36,996.9 c 1.64,-0.1 3.27,-0.3 4.83,-1 l 8.27,6.1 46.99,0 4.13,-2 15.23,10 2.99,-76.3 6.2,69.3 6.6,5 15.2,-4 12.5,-12.3 9.9,10.3 19.7,0 11.3,-6.1 15,13.1 4.2,-75.3 3.1,66.3 6.3,7 8.1,-3 14.8,-5 7.1,-4.2 11.5,7.2 37.9,0 6.3,-4 9.2,4 5.1,9 2.9,-77.3 4,68.3 8,5 14.2,-3 11.8,-11.6 13.7,7.6 34.5,3 6.9,-5 6.6,0 6.2,13 4.5,-77.3 4.7,66.3 4.9,4 19,-4 8.4,-9.2 12.5,8.2 24.4,0 9.2,-5.3 11.7,10.3 5.4,-70.3 6.3,70.3 14.9,-3 15.7,-8.6 14.8,9.6 23.7,-1 7.5,-6.2 13.3,12.2 4.2,-73.3 5.6,65.3 15.1,2 8.6,-3 6.9,-7.5 5.5,0 5.7,5.4 5.2,0 7.9,4.1 11.9,-1 13.3,-6.6 12.9,14.6 4,-73.3 5.5,63.3 4.2,4 21,-3 5,-8.1 5.1,0 6.8,7.1 8.8,0.8"
       id="path4619"
       style="fill:none;stroke:#e61211;stroke-width:6.3798;stroke-linecap:butt;stroke-linejoin:bevel;stroke-miterlimit:4;stroke-opacity:1;stroke-dasharray:none" />
    <rect
       width="153"
       height="153.3"
       x="18.58"
       y="877.7"
       id="rect4621"
       style="fill:none;stroke:#4d4d4d;stroke-width:1.0633" />
    <rect
       width="153"
       height="153.3"
       x="171.6"
       y="877.7"
       id="rect4621-2"
       style="fill:none;stroke:#4d4d4d;stroke-width:1.0633" />
    <rect
       width="153"
       height="153.3"
       x="324.6"
       y="877.7"
       id="rect4621-8"
       style="fill:none;stroke:#4d4d4d;stroke-width:1.0633" />
    <rect
       width="153"
       height="153.3"
       x="477.6"
       y="877.7"
       id="rect4621-8-8"
       style="fill:none;stroke:#4d4d4d;stroke-width:1.0633" />
    <rect
       width="153"
       height="153.3"
       x="630.6"
       y="877.7"
       id="rect4621-8-0"
       style="fill:none;stroke:#4d4d4d;stroke-width:1.0633" />
    <g
       transform="matrix(0.0041,0,0,0.0041,389.8,841.4)"
       id="text4673"
       style="font-size:7509.248px;font-style:normal;font-variant:normal;font-weight:normal;font-stretch:normal;text-align:start;line-height:100%;letter-spacing:0px;word-spacing:0px;writing-mode:lr-tb;text-anchor:start;fill:#000000;fill-opacity:1;stroke:none;font-family:Century Gothic;-inkscape-font-specification:Century Gothic">
      <path
         d="m -32940,-2545 3090,0 0,532 -2550,0 0,1686.4 2530,0 0,528 -2530,0 0,2115.6 2530,0 0,532 -3070,0 z"
         id="path4678" />
      <path
         d="m -28910,-2545 550,0 0,2024 2150,-2024 730,0 -2590,2420 2790,2974 -710,0 -2370,-2515.6 0,2515.6 -550,0 z"
         id="path4680" />
      <path
         d="m -19260,-1639 -420,396 c -300,-296 -630,-520 -990,-673 -360,-153 -710,-229 -1050,-229 -420,0 -820,104 -1200,311 -390,208 -680,490 -890,845.5 -210,355.7 -320,731.5 -320,1127.5 0,405.8 110,791.4 330,1157 220,365 520,653 900,862 380,209 800,313 1260,313 560,0 1030,-156 1410,-469 380,-313 610,-719 680,-1217.6 l -1720,0 0,-520.7 2330,0 c -10,833.3 -260,1495.3 -750,1985.3 -490,490 -1140,735 -1960,735 -1000,0 -1790,-339 -2370,-1019 -450,-523 -670,-1128.1 -670,-1815 0,-510.9 130,-986.3 380,-1426 260,-440 610,-784 1060,-1032 440,-249 950,-373 1520,-373 450,0 880,83 1290,248 400,165 790,430 1180,794 z"
         id="path4682" />
      <path
         d="m -18330,597.4 2020,0 0,447.6 -2020,0 z"
         id="path4684" />
      <path
         d="m -13210,-2545 2510,5394 -580,0 -840,-1775 -2330,0 -840,1775 -600,0 2540,-5394 z m -70,1144 -930,1954.4 1850,0 z"
         id="path4686" />
      <path
         d="m -10010,-1141 519,0 0,1863 c 0,455 24,768 73,939 74,244 214,437 420,579 207,142 453,213 739,213 286,0 529,-69 728,-207 199,-139 337,-320 412,-545 52,-154 77,-480 77,-979 l 0,-1863 525,0 0,1958.4 c 0,549.6 -65,964.6 -193,1242.6 -128,279 -321,497 -579,655 -258,157 -581,236 -970,236 -389,0 -713,-79 -974,-236 -260,-158 -454,-378 -582,-660 -129,-282 -195,-707 -195,-1274.3 z"
         id="path4688" />
      <path
         d="m -3738,-2681 0,503 c -188,-81 -350,-121 -484,-121 -100,0 -183,20 -249,60 -66,41 -108,87 -125,140 -17,52 -26,192 -26,419 l 0,539 833,0 0,440.4 -836,0 0,3549.6 -514,0 0,-3549.6 -524,0 0,-440.4 524,0 0,-623 c 0,-286 27,-490 79,-612 53,-122 142,-221 268,-295 126,-75 278,-112 456,-112 166,0 366,34 598,102 z"
         id="path4690" />
      <path
         d="m -3346,-1141 2929.9,0 -2258.9,3535 2185.6,0 0,455 -3068.6,0 2258,-3538.6 -2046,0 z"
         id="path4692" />
      <path
         d="m 3537,1525 432,227 c -142,279 -305,504 -491,675 -186,171 -395,301 -627,390 -232,90 -495,134 -788,134 C 1412,2951 903.9,2738 537.2,2312 170.6,1885 -12.77,1403 -12.77,865 -12.77,359 142.4,-91.96 452.9,-488 846.4,-991.5 1373,-1243 2033,-1243 c 680,0 1222,257.6 1628,773.4 289,364.2 435,818.9 440,1364 l -3585.8,0 C 525,1359 672.9,1740 958.9,2037 1245,2334 1598,2482 2019,2482 c 202,0 400,-35 592,-106 192,-71 355,-165 489,-283 135,-117 280,-306 437,-568 z m 0,-1074.3 C 3468,176.9 3368,-41.85 3238,-205.6 3107,-369.4 2934,-501.4 2719,-601.6 2504,-701.8 2278,-752 2041,-752 1649,-752 1313,-626.1 1032,-374.3 826.9,-191 671.7,84.03 566.6,450.7 z"
         id="path4694" />
      <path
         d="m 5242,-2783 c 117,0 217,41 300,124 83,84 125,184 125,301 0,115 -42,214 -125,297 -83,83 -183,125 -300,125 -115,0 -214,-42 -297,-125 -84,-83 -125,-182 -125,-297 0,-117 41,-217 125,-301 83,-83 182,-124 297,-124 z m -257,1642 517,0 0,3990 -517,0 z"
         id="path4696" />
      <path
         d="m 10440,-312 -400,253.03 C 9685,-525.8 9205,-759.3 8596,-759.3 c -486,0 -890,156.5 -1211,469.3 -322,312.92 -483,693 -483,1140.4 0,290.6 74,564.6 222,821.6 148,256 351,456 609,597 258,142 547,213 867,213 587,0 1066,-233 1440,-700 l 400,267 c -190,286 -442,508 -764,666 -321,157 -687,236 -1098,236 -631,0 -1154,-200 -1569,-601 -416,-401 -624,-889 -624,-1463 0,-386.2 98,-744.9 292,-1076.1 194,-331.2 461,-589.7 801,-775.5 340,-185.4 720,-278.4 1140,-278.4 264,0 519,40 765,121 246,80 454,185.5 627,315 170,129.6 320,294.6 430,495 z"
         id="path4698" />
      <path
         d="m 11430,-2681 510,0 0,2255.4 c 210,-273.8 440,-478.5 690,-614.4 250,-135 520,-203 810,-203 300,0 560,75 790,227 230,151.6 400,355.1 510,610.5 110,255.5 170,655.8 170,1200.9 l 0,2053.6 -520,0 0,-1903.3 c 0,-459.6 -10,-766.3 -50,-920.34 -60,-263.96 -180,-462.56 -350,-595.86 -170,-133.2 -380,-199.8 -660,-199.8 -310,0 -580,102.7 -830,308 -250,205.3 -410,459.557 -490,762.7 -40,195.5 -70,557.3 -70,1085.6 l 0,1463 -510,0 z"
         id="path4700" />
      <path
         d="m 16000,-1141 520,0 0,715.4 c 200,-273.8 430,-478.5 680,-614.4 250,-135 520,-203 810,-203 300,0 570,75 800,227 230,151.6 400,355.7 510,612.4 110,256.6 160,656.3 160,1199 l 0,2053.6 -510,0 0,-1903.3 c 0,-459.6 -20,-766.3 -60,-920.34 -60,-263.96 -170,-462.56 -340,-595.86 -170,-133.2 -390,-199.8 -660,-199.8 -310,0 -590,102.7 -830,308 -250,205.3 -410,459.557 -490,762.7 -50,198 -70,559.7 -70,1085.6 l 0,1463 -520,0 z"
         id="path4702" />
      <path
         d="m 20510,-1141 520,0 0,1863 c 0,455 20,768 70,939 80,244 220,437 420,579 210,142 460,213 740,213 290,0 530,-69 730,-207 200,-139 340,-320 410,-545 50,-154 80,-480 80,-979 l 0,-1863 520,0 0,1958.4 c 0,549.6 -60,964.6 -190,1242.6 -130,279 -320,497 -580,655 -260,157 -580,236 -970,236 -390,0 -710,-79 -970,-236 -260,-158 -460,-378 -580,-660 -130,-282 -200,-707 -200,-1274.3 z"
         id="path4704" />
      <path
         d="m 25140,-1141 510,0 0,715.4 c 210,-273.8 440,-478.5 690,-614.4 250,-135 520,-203 810,-203 300,0 560,75 790,227 230,151.6 410,355.7 520,612.4 110,256.6 160,656.3 160,1199 l 0,2053.6 -510,0 0,-1903.3 c 0,-459.6 -20,-766.3 -60,-920.34 -60,-263.96 -170,-462.56 -340,-595.86 -170,-133.2 -390,-199.8 -660,-199.8 -310,0 -590,102.7 -840,308 -240,205.3 -400,459.557 -480,762.7 -50,198 -80,559.7 -80,1085.6 l 0,1463 -510,0 z"
         id="path4706" />
      <path
         d="m 33150,-1141 520,0 0,3179 c 0,560 -50,970 -150,1229 -130,366 -370,649 -700,847 -330,198 -730,297 -1200,297 -340,0 -650,-49 -920,-145 -270,-97 -490,-226 -660,-389 -180,-162 -330,-400 -480,-713 l 560,0 c 150,264 350,460 590,587 240,127 530,190 890,190 350,0 640,-65 880,-196 240,-131 420,-295 520,-493 100,-198 150,-517 150,-957 l 0,-205 c -190,244 -430,432 -710,563 -270,130 -570,196 -880,196 -370,0 -710,-91 -1040,-273 -320,-183 -570,-428 -740,-736 -180,-308 -270,-646 -270,-1015.3 0,-369.1 90,-713.2 280,-1032.2 180,-319 430,-571.3 760,-757.1 320,-185.4 660,-278.4 1020,-278.4 300,0 580,61 840,185 250,123.3 500,326.8 740,610.4 z m -1510,392.7 c -290,0 -560,70.3 -810,210.8 -250,140.6 -450,334.9 -590,583.03 -140,248.07 -210,516.37 -210,804.87 0,437.6 150,799.6 440,1085.6 290,286 670,429 1140,429 470,0 850,-142 1140,-426 280,-283 430,-656 430,-1118 0,-300.6 -70,-568.9 -200,-804.8 -130,-235.9 -320,-422.3 -560,-559.2 -240,-136.8 -500,-205.3 -780,-205.3 z"
         id="path4708" />
    </g>
  </g>
</svg>
